<svg xmlns:xlink="http://www.w3.org/1999/xlink" xmlns="http://www.w3.org/2000/svg" data-v-8a0f3bac="" width="24" height="24" focusable="false" aria-hidden="true" class=""><defs><symbol id="icon-limbo" viewBox="0 0 24 24">
        <path d="M13.343 19.63h-2.686a.665.665 0 0 0-.474.201.692.692 0 0 0 0 .968c.126.129.296.201.474.201h2.686a.664.664 0 0 0 .474-.2.692.692 0 0 0 0-.969.665.665 0 0 0-.474-.2Z"></path>
        <path d="m19.69 13.455-2.538-3.106a10.838 10.838 0 0 0-.67-2.986c-.975-2.586-2.698-4.28-3.639-5.059a1.333 1.333 0 0 0-1.685-.006c-.953.78-2.699 2.472-3.683 5.058-.375.979-.604 2.01-.68 3.058l-2.484 3.041a1.39 1.39 0 0 0-.28 1.174l1.038 4.762c.049.228.154.438.305.612.152.175.344.307.559.384a1.316 1.316 0 0 0 1.285-.223L9.55 18.26h4.9l2.332 1.903a1.319 1.319 0 0 0 1.285.222c.215-.077.408-.208.559-.383.151-.174.256-.384.305-.612l1.038-4.762a1.405 1.405 0 0 0-.28-1.174Zm-13.31 5.64-1.038-4.763 1.504-1.841c.191 1.6.727 3.237 1.607 4.912L6.38 19.093Zm5.62-8.71c-.2 0-.394-.06-.56-.172a1.023 1.023 0 0 1-.37-.461 1.047 1.047 0 0 1 .218-1.12.989.989 0 0 1 1.098-.223c.183.078.34.21.451.379a1.041 1.041 0 0 1-.125 1.297.997.997 0 0 1-.712.3Zm5.62 8.71-2.077-1.696c.87-1.686 1.394-3.338 1.573-4.954l1.542 1.887-1.038 4.762Z"></path>
    </symbol></defs><use data-v-8a0f3bac="" xlink:href="#icon-limbo" class="svg-use" fill="#93ACD3"></use></svg>