<svg xmlns:xlink="http://www.w3.org/1999/xlink" xmlns="http://www.w3.org/2000/svg" focusable="false" aria-hidden="true" data-v-21f18212="" width="22"  height="22" ><defs><symbol id="icon-metamask" viewBox="0 0 22 22">
        <path d="M20 1.84l-7.8 5.75 1.45-3.4L20 1.85z" fill="#E17726" stroke="#E17726" stroke-width=".25" stroke-linecap="round" stroke-linejoin="round"></path>
        <path d="M2.02 1.84l7.73 5.8L8.37 4.2 2.02 1.84zM17.19 15.17l-2.07 3.16 4.43 1.22 1.28-4.3-3.64-.08zM1.2 15.24l1.26 4.31 4.43-1.22-2.06-3.16-3.63.07z" fill="#E27625" stroke="#E27625" stroke-width=".25" stroke-linecap="round" stroke-linejoin="round"></path>
        <path d="M6.65 9.83L5.42 11.7l4.4.2-.15-4.72-3.02 2.66zM15.36 9.84L12.3 7.12l-.1 4.77 4.4-.2-1.24-1.85zM6.9 18.33l2.65-1.28-2.29-1.78-.37 3.06zM12.47 17.05l2.65 1.28-.37-3.06-2.28 1.78z" fill="#E27625" stroke="#E27625" stroke-width=".25" stroke-linecap="round" stroke-linejoin="round"></path>
        <path d="M15.12 18.33l-2.65-1.28.21 1.72-.02.73 2.46-1.17zM6.9 18.33l2.46 1.17-.02-.73.21-1.72-2.66 1.28z" fill="#D5BFB2" stroke="#D5BFB2" stroke-width=".25" stroke-linecap="round" stroke-linejoin="round"></path>
        <path d="M6.9 18.33l.38-3.16-2.45.07 2.06 3.1zM14.74 15.17l.38 3.16 2.07-3.09-2.45-.07zM16.6 11.7l-4.4.19.41 2.25.65-1.36 1.56.71 1.78-1.8zM7.2 13.5l1.56-.72.65 1.36.4-2.25-4.39-.2 1.78 1.8z" fill="#CC6228" stroke="#CC6228" stroke-width=".25" stroke-linecap="round" stroke-linejoin="round"></path>
        <path d="M5.42 11.7l1.84 3.57-.06-1.78-1.78-1.8zM14.82 13.5l-.07 1.77 1.85-3.58-1.78 1.8zM9.81 11.89l-.4 2.25.51 2.65.12-3.5-.23-1.4zM12.2 11.89l-.21 1.4.1 3.5.52-2.65-.4-2.25z" fill="#E27525" stroke="#E27525" stroke-width=".25" stroke-linecap="round" stroke-linejoin="round"></path>
        <path d="M12.61 14.14l-.51 2.65.37.26 2.28-1.78.07-1.78-2.2.65zM7.2 13.5l.06 1.77 2.3 1.78.36-.26-.51-2.65-2.2-.65z" fill="#F5841F" stroke="#F5841F" stroke-width=".25" stroke-linecap="round" stroke-linejoin="round"></path>
        <path d="M12.66 19.5l.02-.73-.2-.17H9.54l-.2.17.02.73-2.47-1.17.87.7 1.75 1.21h3l1.75-1.2.86-.7-2.46 1.16z" fill="#C0AC9D" stroke="#C0AC9D" stroke-width=".25" stroke-linecap="round" stroke-linejoin="round"></path>
        <path d="M12.47 17.05l-.37-.26H9.92l-.37.26-.2 1.72.19-.17h2.94l.2.17-.21-1.72z" fill="#161616" stroke="#161616" stroke-width=".25" stroke-linecap="round" stroke-linejoin="round"></path>
        <path d="M20.32 7.96l.66-3.17-.99-2.95-7.52 5.56 2.9 2.43 4.08 1.2.9-1.06-.39-.28.63-.57-.48-.37.62-.47-.4-.32zM1.04 4.79l.66 3.17-.42.32.63.47-.48.37.62.57-.39.28.9 1.05 4.1-1.19 2.9-2.43-7.54-5.56-.98 2.95z" fill="#763E1A" stroke="#763E1A" stroke-width=".25" stroke-linecap="round" stroke-linejoin="round"></path>
        <path d="M19.45 11.02l-4.09-1.19 1.24 1.86-1.85 3.58 2.44-.03h3.64l-1.38-4.22zM6.66 9.83l-4.1 1.2-1.36 4.21h3.63l2.43.03-1.84-3.58 1.24-1.86zM12.2 11.89l.27-4.5 1.18-3.2H8.37l1.18 3.2.26 4.5.1 1.41.01 3.49h2.18V13.3l.1-1.41z" fill="#F5841F" stroke="#F5841F" stroke-width=".25" stroke-linecap="round" stroke-linejoin="round"></path>
    </symbol></defs><use xlink:href="#icon-metamask" class="svg-use" fill="#FFFFFF"></use></svg>