<svg xmlns:xlink="http://www.w3.org/1999/xlink" xmlns="http://www.w3.org/2000/svg" data-v-675efb76="" width="24" height="24" focusable="false" aria-hidden="true" class=""><defs><symbol id="icon-hamburger-open" viewBox="0 0 24 24">
        <path fill-rule="evenodd" clip-rule="evenodd" d="M5.936 6.773a1 1 0 0 1 .04 1.414L3.32 11H21a1 1 0 1 1 0 2H3.32l2.657 2.813a1 1 0 1 1-1.454 1.374l-4.25-4.5a1 1 0 0 1 0-1.374l4.25-4.5a1 1 0 0 1 1.413-.04ZM9 6a1 1 0 0 1 1-1h11a1 1 0 1 1 0 2H10a1 1 0 0 1-1-1ZM9 18a1 1 0 0 1 1-1h11a1 1 0 1 1 0 2H10a1 1 0 0 1-1-1Z"></path>
    </symbol></defs><use data-v-675efb76="" xlink:href="#icon-hamburger-open" class="svg-use" fill="#55657E"></use></svg>