<svg xmlns:xlink="http://www.w3.org/1999/xlink" xmlns="http://www.w3.org/2000/svg" data-v-675efb76="" width="24" height="24" focusable="false" aria-hidden="true" class=""><defs><symbol id="icon-hamburger" viewBox="0 0 24 24">
        <path fill-rule="evenodd" clip-rule="evenodd" d="M18.064 6.773a1 1 0 0 0-.04 1.414L20.68 11H3a1 1 0 1 0 0 2h17.68l-2.657 2.813a1 1 0 0 0 1.454 1.374l4.25-4.5a1 1 0 0 0 0-1.374l-4.25-4.5a1 1 0 0 0-1.413-.04ZM15 6a1 1 0 0 0-1-1H3a1 1 0 1 0 0 2h11a1 1 0 0 0 1-1ZM15 18a1 1 0 0 0-1-1H3a1 1 0 1 0 0 2h11a1 1 0 0 0 1-1Z"></path>
    </symbol></defs><use data-v-675efb76="" xlink:href="#icon-hamburger" class="svg-use" fill="#55657E"></use></svg>