<svg xmlns:xlink="http://www.w3.org/1999/xlink" xmlns="http://www.w3.org/2000/svg" width="24" height="24" focusable="false" aria-hidden="true" data-v-675efb76="" class=""><defs><symbol id="icon-chat-2" viewBox="0 0 24 24">
        <path fill-rule="evenodd" clip-rule="evenodd" d="M2.8 8.89a4.56 4.56 0 0 1 4.55-4.56h9.11a4.56 4.56 0 0 1 4.56 4.56v5.7a4.56 4.56 0 0 1-3.8 4.49c-.35.05-.68.22-.88.51l-1.46 2.07a.57.57 0 0 1-.93 0l-1.43-2.04c-.22-.3-.56-.48-.94-.48H7.35a4.56 4.56 0 0 1-4.56-4.56v-5.7Zm5.79 3.93a1.24 1.24 0 1 0 0-2.48 1.24 1.24 0 0 0 0 2.48Zm4.56-1.24a1.24 1.24 0 1 1-2.49 0 1.24 1.24 0 0 1 2.49 0Zm2.07 1.24a1.24 1.24 0 1 0 0-2.48 1.24 1.24 0 0 0 0 2.48Z" fill="white"></path>
    </symbol></defs><use xlink:href="#icon-chat-2" class="svg-use" fill="#ffffff"></use></svg>