<svg xmlns:xlink="http://www.w3.org/1999/xlink" xmlns="http://www.w3.org/2000/svg" width="20" height="20" focusable="false" aria-hidden="true" class="social-icons__svg" data-v-0005cfac=""><defs><symbol id="icon-bitcointalk" viewBox="0 0 20 20">
        <path fill-rule="evenodd" clip-rule="evenodd" d="M12.0928 1.66675C12.782 1.66675 13.4301 1.93516 13.9174 2.4224C14.4048 2.90976 14.6732 3.55759 14.6732 4.24687V9.47665C14.6732 10.8993 13.5157 12.0568 12.0928 12.0568H4.44948L2.50044 14.0057C2.40697 14.0992 2.2821 14.1488 2.15493 14.1488C2.09211 14.1488 2.02866 14.1366 1.96825 14.1115C1.78577 14.036 1.66675 13.858 1.66675 13.6605V4.24687C1.66675 3.55772 1.93519 2.90976 2.42261 2.4224C2.90991 1.93516 3.55793 1.66675 4.24729 1.66675H12.0928ZM15.753 6.37435H15.6489V9.47744C15.6489 11.4386 14.0531 13.0341 12.0917 13.0341H5.32706V13.6613C5.32706 15.084 6.48463 16.2414 7.90747 16.2414H15.5507L17.4999 18.1904C17.5932 18.2837 17.7182 18.3334 17.8452 18.3334C17.9082 18.3334 17.9716 18.3212 18.0319 18.2962C18.2144 18.2206 18.3334 18.0426 18.3334 17.8452V8.95447C18.3334 7.53167 17.1758 6.37435 15.753 6.37435ZM7.78654 2.93628C7.78654 2.66661 7.56793 2.448 7.29826 2.448C7.02859 2.448 6.80998 2.66661 6.80998 2.93628V3.42456H5.83341C5.56374 3.42456 5.34513 3.64317 5.34513 3.91284C5.34513 4.18251 5.56374 4.40112 5.83341 4.40112H5.99617V9.60946H5.83341C5.56374 9.60946 5.34513 9.82807 5.34513 10.0977C5.34513 10.3674 5.56374 10.586 5.83341 10.586H6.80998V11.0743C6.80998 11.344 7.02859 11.5626 7.29826 11.5626C7.56793 11.5626 7.78654 11.344 7.78654 11.0743V10.586H8.43758V11.0743C8.43758 11.344 8.65619 11.5626 8.92586 11.5626C9.19553 11.5626 9.41414 11.344 9.41414 11.0743V10.586C9.97531 10.586 10.5135 10.3631 10.9103 9.96629C11.3071 9.56948 11.53 9.0313 11.53 8.47013C11.53 7.90897 11.3071 7.37078 10.9103 6.97398C10.7683 6.83198 10.6082 6.71225 10.4354 6.61703C10.721 6.26923 10.879 5.8316 10.879 5.37769C10.879 4.85968 10.6732 4.3629 10.3069 3.99662C10.0581 3.74782 9.74912 3.57307 9.41414 3.48657V2.93628C9.41414 2.66661 9.19553 2.448 8.92586 2.448C8.65619 2.448 8.43758 2.66661 8.43758 2.93628V3.42456H7.78654V2.93628ZM10.2198 9.27576C10.0061 9.48942 9.71631 9.60946 9.41414 9.60946H6.97274V7.33081H9.41414C9.71631 7.33081 10.0061 7.45085 10.2198 7.66451C10.4334 7.87817 10.5535 8.16797 10.5535 8.47013C10.5535 8.7723 10.4334 9.06209 10.2198 9.27576ZM6.97274 4.40112H8.92586C9.18486 4.40112 9.43326 4.50401 9.6164 4.68715C9.79954 4.87029 9.90243 5.11869 9.90243 5.37769C9.90243 5.63669 9.79954 5.88508 9.6164 6.06822C9.43326 6.25136 9.18486 6.35425 8.92586 6.35425H6.97274V4.40112Z"></path>
    </symbol></defs><use xlink:href="#icon-bitcointalk" class="svg-use" fill="#FFFFFF"></use></svg>