<svg xmlns:xlink="http://www.w3.org/1999/xlink" xmlns="http://www.w3.org/2000/svg" width="20" height="20" focusable="false" aria-hidden="true" class="social-icons__svg" data-v-0005cfac=""><defs><symbol id="icon-discord" viewBox="0 0 20 20">
            <path d="M16.3532 4.50784C15.1847 3.96428 13.9316 3.56382 12.6215 3.33446C12.5976 3.33003 12.5738 3.34109 12.5615 3.36322C12.4004 3.65379 12.2219 4.03287 12.0969 4.33082C10.6877 4.11695 9.28582 4.11695 7.90558 4.33082C7.78055 4.02625 7.59557 3.65379 7.43369 3.36322C7.4214 3.34183 7.39757 3.33077 7.37371 3.33446C6.06429 3.56309 4.81125 3.96355 3.64202 4.50784C3.6319 4.51226 3.62322 4.51964 3.61747 4.52922C1.2407 8.129 0.589609 11.6403 0.909015 15.1081C0.91046 15.125 0.919854 15.1413 0.932862 15.1516C2.50098 16.319 4.01997 17.0278 5.51076 17.4976C5.53462 17.505 5.5599 17.4961 5.57508 17.4762C5.92772 16.988 6.24208 16.4732 6.5116 15.9318C6.52751 15.9001 6.51232 15.8625 6.47982 15.85C5.9812 15.6582 5.50642 15.4244 5.04971 15.159C5.01359 15.1376 5.0107 15.0852 5.04393 15.0601C5.14004 14.9871 5.23617 14.9111 5.32794 14.8344C5.34454 14.8204 5.36768 14.8175 5.3872 14.8263C8.38757 16.2151 11.6358 16.2151 14.6008 14.8263C14.6203 14.8167 14.6434 14.8197 14.6608 14.8337C14.7526 14.9104 14.8487 14.9871 14.9455 15.0601C14.9787 15.0852 14.9766 15.1376 14.9404 15.159C14.4837 15.4296 14.009 15.6582 13.5096 15.8493C13.4771 15.8618 13.4626 15.9001 13.4786 15.9318C13.7539 16.4724 14.0682 16.9872 14.4144 17.4755C14.4288 17.4961 14.4548 17.505 14.4787 17.4976C15.9767 17.0278 17.4957 16.319 19.0638 15.1516C19.0775 15.1413 19.0862 15.1258 19.0876 15.1088C19.4699 11.0997 18.4474 7.61718 16.377 4.52996C16.372 4.51964 16.3633 4.51226 16.3532 4.50784ZM6.95966 12.9966C6.05634 12.9966 5.31203 12.1558 5.31203 11.1233C5.31203 10.0908 6.04191 9.25003 6.95966 9.25003C7.88461 9.25003 8.62172 10.0982 8.60726 11.1233C8.60726 12.1558 7.87738 12.9966 6.95966 12.9966ZM13.0515 12.9966C12.1482 12.9966 11.4039 12.1558 11.4039 11.1233C11.4039 10.0908 12.1337 9.25003 13.0515 9.25003C13.9764 9.25003 14.7135 10.0982 14.6991 11.1233C14.6991 12.1558 13.9764 12.9966 13.0515 12.9966Z"></path>
    </symbol></defs><use xlink:href="#icon-discord" class="svg-use" fill="#FFFFFF"></use></svg>