<svg xmlns:xlink="http://www.w3.org/1999/xlink" xmlns="http://www.w3.org/2000/svg" width="20" height="20" focusable="false" aria-hidden="true" class="social-icons__svg" data-v-0005cfac=""><defs><symbol id="icon-instagram" viewBox="0 0 20 20">
        <path fill-rule="evenodd" clip-rule="evenodd" d="M6.17826 1.66675H13.8219C16.3096 1.66675 18.3334 3.69057 18.3334 6.17826V13.822C18.3334 16.3096 16.3096 18.3334 13.822 18.3334H6.17826C3.69057 18.3334 1.66675 16.3096 1.66675 13.822V6.17826C1.66675 3.69057 3.69057 1.66675 6.17826 1.66675ZM10.0257 15.2084C7.36042 15.2084 5.19209 13.0401 5.19209 10.3748C5.19209 7.70944 7.36042 5.54112 10.0257 5.54112C12.6911 5.54112 14.8594 7.70944 14.8594 10.3748C14.8594 13.0401 12.6911 15.2084 10.0257 15.2084ZM14.975 6.68105C14.1873 6.68105 13.5467 6.04041 13.5467 5.25276C13.5467 4.46511 14.1873 3.82434 14.975 3.82434C15.7626 3.82434 16.4034 4.46511 16.4034 5.25276C16.4034 6.04041 15.7626 6.68105 14.975 6.68105ZM10.0256 12.5845C8.80714 12.5845 7.81588 11.5932 7.81588 10.3747C7.81588 9.15628 8.80714 8.16501 10.0256 8.16501C11.2441 8.16501 12.2353 9.15628 12.2353 10.3747C12.2353 11.5932 11.2441 12.5845 10.0256 12.5845Z"></path>
    </symbol></defs><use xlink:href="#icon-instagram" class="svg-use" fill="#FFFFFF"></use></svg>