<svg xmlns:xlink="http://www.w3.org/1999/xlink" xmlns="http://www.w3.org/2000/svg" width="20" height="20" focusable="false" aria-hidden="true" class="social-icons__svg" data-v-0005cfac=""><defs><symbol id="icon-pinterest" viewBox="0 0 20 20">
        <path d="M15.5546 2.71221C14.2409 1.50073 12.4229 0.833496 10.4355 0.833496C7.39968 0.833496 5.5325 2.02893 4.50073 3.03172C3.22914 4.26755 2.5 5.9085 2.5 7.53388C2.5 9.57466 3.3886 11.141 4.87665 11.7238C4.97655 11.7631 5.07708 11.7829 5.17563 11.7829C5.48956 11.7829 5.7383 11.5855 5.82448 11.269C5.87473 11.0875 5.9911 10.6395 6.04172 10.445C6.15004 10.061 6.06252 9.87623 5.82627 9.60878C5.39589 9.11958 5.19546 8.54111 5.19546 7.78826C5.19546 5.55204 6.92882 3.17542 10.1414 3.17542C12.6905 3.17542 14.274 4.56719 14.274 6.80752C14.274 8.22128 13.957 9.53054 13.3812 10.4943C12.9811 11.164 12.2775 11.9622 11.1974 11.9622C10.7304 11.9622 10.3108 11.7779 10.0461 11.4566C9.79601 11.1528 9.71356 10.7605 9.81417 10.3515C9.92778 9.88944 10.0827 9.40747 10.2327 8.94155C10.5062 8.09054 10.7647 7.28677 10.7647 6.64549C10.7647 5.54864 10.0628 4.81161 9.01812 4.81161C7.69054 4.81161 6.65045 6.10691 6.65045 7.7605C6.65045 8.57147 6.87481 9.17805 6.97639 9.41095C6.80913 10.0916 5.81516 14.1386 5.62662 14.9018C5.51759 15.3472 4.86088 18.8658 5.94786 19.1464C7.16914 19.4616 8.26081 16.0347 8.37192 15.6475C8.46198 15.3326 8.77706 14.1417 8.97015 13.4097C9.55973 13.9552 10.509 14.3241 11.4327 14.3241C13.174 14.3241 14.74 13.5713 15.8422 12.2047C16.9112 10.8791 17.5 9.03146 17.5 7.00246C17.4999 5.41626 16.7908 3.85247 15.5546 2.71221Z"></path>
    </symbol></defs><use xlink:href="#icon-pinterest" class="svg-use" fill="#FFFFFF"></use></svg>