<svg xmlns:xlink="http://www.w3.org/1999/xlink" xmlns="http://www.w3.org/2000/svg" width="20" height="20" focusable="false" aria-hidden="true" class="social-icons__svg" data-v-0005cfac=""><defs><symbol id="icon-reddit" viewBox="0 0 20 19">
        <path fill-rule="evenodd" clip-rule="evenodd" d="M16.25 3.33333C17.1129 3.33333 17.8125 2.58714 17.8125 1.66667C17.8125 0.746192 17.1129 0 16.25 0C15.6492 0 15.1276 0.361668 14.8662 0.892021L11.2836 0.0523452C11.1719 0.0261534 11.0549 0.048583 10.9588 0.114663C10.8626 0.180743 10.795 0.285016 10.7712 0.404373L9.65104 6.00507C7.31854 6.07303 5.22057 6.81926 3.70458 7.98564C3.31128 7.58171 2.77658 7.33333 2.1875 7.33333C0.979376 7.33333 0 8.378 0 9.66667C0 10.6184 0.534163 11.437 1.30014 11.8C1.267 12.03 1.25 12.2635 1.25 12.5C1.25 16.0899 5.16751 19 10 19C14.8325 19 18.75 16.0899 18.75 12.5C18.75 12.2635 18.733 12.03 18.6999 11.8C19.4658 11.437 20 10.6184 20 9.66667C20 8.378 19.0206 7.33333 17.8125 7.33333C17.2234 7.33333 16.6887 7.58171 16.2954 7.98564C14.8184 6.84925 12.789 6.11169 10.5284 6.01166L11.5214 1.04662L14.6917 1.78966C14.7507 2.6527 15.4258 3.33333 16.25 3.33333ZM6.5625 13C7.42544 13 8.125 12.2538 8.125 11.3333C8.125 10.4129 7.42544 9.66667 6.5625 9.66667C5.69956 9.66667 5 10.4129 5 11.3333C5 12.2538 5.69956 13 6.5625 13ZM13.4375 13C14.3004 13 15 12.2538 15 11.3333C15 10.4129 14.3004 9.66667 13.4375 9.66667C12.5746 9.66667 11.875 10.4129 11.875 11.3333C11.875 12.2538 12.5746 13 13.4375 13ZM6.83577 15.102C6.66208 14.9296 6.39019 14.9399 6.22848 15.1252C6.06678 15.3104 6.07649 15.6005 6.25017 15.773C6.71189 16.2315 8.0267 17.0208 9.94141 17.0208C9.95125 17.0208 9.96102 17.0205 9.9707 17.0198C9.98038 17.0205 9.99015 17.0208 10 17.0208C11.9147 17.0208 13.2295 16.2315 13.6912 15.773C13.8649 15.6005 13.8746 15.3104 13.7129 15.1252C13.5512 14.9399 13.2793 14.9296 13.1056 15.102C12.8121 15.3935 11.7103 16.1042 10 16.1042C9.99015 16.1042 9.98038 16.1045 9.9707 16.1052C9.96102 16.1045 9.95125 16.1042 9.94141 16.1042C8.23112 16.1042 7.12925 15.3935 6.83577 15.102Z"></path>
    </symbol></defs><use xlink:href="#icon-reddit" class="svg-use" fill="#FFFFFF"></use></svg>