<svg xmlns:xlink="http://www.w3.org/1999/xlink" xmlns="http://www.w3.org/2000/svg" width="20" height="20" focusable="false" aria-hidden="true" class="social-icons__svg" data-v-0005cfac=""><defs><symbol id="icon-steemit" viewBox="0 0 20 20">
        <path d="M16.3558 6.69889C15.6486 6.00485 14.8254 5.49702 13.95 5.16975C14.4602 3.69704 16.2689 3.16099 16.2689 3.16099C16.2689 3.16099 12.0486 1.01116 7.38772 1.86884C5.83411 2.11147 4.34426 3.04814 3.2544 4.28386C0.889194 6.96409 1.20224 10.9985 3.95585 13.3007C4.37904 13.6562 5.32396 14.2092 5.34135 14.2374C4.72107 15.7835 2.73846 16.2067 2.73846 16.2067C2.73846 16.2067 5.35875 17.8148 8.87757 18.2323C9.81091 18.3452 10.8022 18.3734 11.8283 18.2662C13.4573 18.1364 15.0805 17.29 16.3152 16.0994C18.9877 13.5151 19.0109 9.30577 16.3558 6.69889ZM15.15 15.0725C14.1529 16.0317 12.6631 16.6411 11.5152 16.7258C10.7037 16.8048 9.83409 16.8161 8.99931 16.7145C7.77033 16.5678 6.88338 16.2349 6.01382 15.9132C6.45439 15.4957 6.89497 14.9201 7.07468 14.4236C7.19062 14.1302 7.17903 13.8029 7.0399 13.5151C6.10657 11.6305 6.51237 9.37348 8.04859 7.90641C9.16163 6.83996 10.6921 6.33777 12.2457 6.52397C13.3877 6.65939 14.4254 7.1503 15.237 7.9459C17.208 9.88695 17.1384 13.1709 15.15 15.0725Z"></path>
    </symbol></defs><use xlink:href="#icon-steemit" class="svg-use" fill="#FFFFFF"></use></svg>