<svg xmlns:xlink="http://www.w3.org/1999/xlink" xmlns="http://www.w3.org/2000/svg" width="20" height="20" focusable="false" aria-hidden="true" class="chats-channels__icon" data-v-12814126=""><defs><symbol id="icon-telegram" viewBox="0 0 20 20">
            <path d="M17.5842 2.54564C14.5712 3.72655 4.86018 7.66747 1.17974 9.1642C1.07291 9.20701 0.982301 9.28098 0.92038 9.37596C0.858459 9.47093 0.828259 9.58225 0.833925 9.69461C0.839592 9.80697 0.880845 9.91488 0.952024 10.0035C1.0232 10.0921 1.12081 10.1571 1.23144 10.1895L5.46182 11.4711L14.9144 5.89154C14.9262 5.88243 14.9413 5.87828 14.9563 5.88C14.9713 5.88172 14.9849 5.88916 14.9943 5.90069C15.0036 5.91223 15.0079 5.9269 15.0061 5.9415C15.0044 5.95609 14.9967 5.9694 14.9849 5.9785L7.75563 12.6703L14.308 17.3344C14.4269 17.4199 14.5662 17.4745 14.7128 17.4931C14.8594 17.5116 15.0084 17.4934 15.1458 17.4403C15.2832 17.3872 15.4043 17.3008 15.4979 17.1894C15.5915 17.0779 15.6543 16.9451 15.6806 16.8035C16.2869 13.6635 17.8051 5.8183 18.3222 3.12236C18.3421 3.02901 18.3351 2.93212 18.3019 2.84241C18.2688 2.75269 18.2109 2.67363 18.1345 2.61396C18.0582 2.55429 17.9664 2.51633 17.8693 2.50427C17.7722 2.49222 17.6735 2.50653 17.5842 2.54564Z"></path>
    </symbol></defs><use xlink:href="#icon-telegram" class="svg-use" fill="#FFFFFF"></use></svg>