<svg xmlns:xlink="http://www.w3.org/1999/xlink" xmlns="http://www.w3.org/2000/svg" width="20" height="20" focusable="false" aria-hidden="true" class="social-icons__svg" data-v-0005cfac=""><defs><symbol id="icon-tiktok" viewBox="0 0 20 20">
        <path d="M10.4631 0.833496V13.3336C10.4631 14.7145 9.28111 15.8334 7.82443 15.8334C6.36672 15.8334 5.18564 14.7136 5.18564 13.3336C5.18564 11.9527 6.36765 10.834 7.82443 10.834V7.50043C4.42375 7.50043 1.66675 10.1123 1.66675 13.3336C1.66675 16.5551 4.42375 19.1668 7.82443 19.1668C11.225 19.1668 13.982 16.5551 13.982 13.3336V7.50043L14.1674 7.58869C15.2023 8.07933 16.3432 8.33426 17.5001 8.33426V4.99992L17.3947 4.97521C15.3885 4.5005 13.9811 2.79231 13.9811 0.833496H10.4631Z"></path>
    </symbol></defs><use xlink:href="#icon-tiktok" class="svg-use" fill="#FFFFFF"></use></svg>