<svg xmlns:xlink="http://www.w3.org/1999/xlink" xmlns="http://www.w3.org/2000/svg" width="20" height="20" focusable="false" aria-hidden="true" class="chats-channels__icon" data-v-12814126=""><defs><symbol id="icon-twitter" viewBox="0 0 20 20">
        <path d="M17.2831 6.23838C17.2952 6.40283 17.2952 6.56634 17.2952 6.72986C17.2952 11.7339 13.5141 17.5001 6.60417 17.5001C4.47529 17.5001 2.49754 16.879 0.833252 15.8001C1.13551 15.8349 1.42658 15.8471 1.74096 15.8471C3.4323 15.8512 5.07575 15.2815 6.40639 14.2299C5.62222 14.2156 4.86205 13.9549 4.23203 13.4844C3.602 13.0139 3.13358 12.3569 2.89216 11.6052C3.12445 11.64 3.35768 11.6634 3.6021 11.6634C3.93887 11.6634 4.27752 11.6165 4.5919 11.5347C3.74087 11.3616 2.97563 10.897 2.42629 10.2197C1.87695 9.54249 1.57742 8.6945 1.57864 7.81994V7.77296C2.07961 8.05394 2.6608 8.22967 3.27651 8.25316C2.7607 7.90789 2.33776 7.43937 2.0454 6.88941C1.75305 6.33945 1.60039 5.72515 1.60103 5.1013C1.60103 4.39838 1.78667 3.75372 2.11226 3.19177C3.05648 4.36175 4.23414 5.31891 5.56896 6.00124C6.90378 6.68358 8.366 7.07588 9.86092 7.15273C9.80308 6.87082 9.76763 6.57856 9.76763 6.28536C9.76738 5.78821 9.86441 5.29588 10.0532 4.83652C10.2419 4.37716 10.5187 3.95978 10.8677 3.60824C11.2167 3.2567 11.631 2.97789 12.087 2.78775C12.5431 2.59762 13.0318 2.49988 13.5253 2.50012C14.6075 2.50012 15.5843 2.95683 16.2709 3.69546C17.1121 3.53159 17.9189 3.22223 18.6554 2.7811C18.3749 3.65582 17.7875 4.39754 17.0032 4.86731C17.7493 4.78158 18.4785 4.58393 19.1666 4.28091C18.6527 5.03561 18.0159 5.69741 17.2831 6.23838Z"></path>
    </symbol></defs><use xlink:href="#icon-twitter" class="svg-use" fill="#FFFFFF"></use></svg>