<svg xmlns:xlink="http://www.w3.org/1999/xlink" xmlns="http://www.w3.org/2000/svg" width="20" height="20" focusable="false" aria-hidden="true" class="social-icons__svg" data-v-0005cfac=""><defs><symbol id="icon-youtube" viewBox="0 0 20 20">
        <path fill-rule="evenodd" clip-rule="evenodd" d="M9.74391 17.2086L9.93277 17.2093L9.99989 17.2094L10.0672 17.2093L10.2561 17.2086C10.4192 17.2078 10.6536 17.2063 10.9392 17.2033C11.5102 17.1972 12.2875 17.185 13.1114 17.1606C13.9341 17.1363 14.8089 17.0996 15.573 17.0441C16.3177 16.99 17.0163 16.9144 17.452 16.7984L17.4616 16.7957C17.9774 16.6503 18.4459 16.3718 18.8196 15.9881C19.1933 15.6043 19.459 15.1288 19.5895 14.6094C19.5933 14.5943 19.5966 14.5791 19.5994 14.5637C19.8709 13.0637 20.0048 11.5421 19.9995 10.0179C20.0091 8.47051 19.8751 6.92555 19.5994 5.40271L18.9129 5.52701L19.5895 5.357C19.459 4.8377 19.1933 4.36219 18.8196 3.97839C18.4459 3.59461 17.9774 3.31611 17.4616 3.17073C17.4535 3.16846 17.4454 3.16632 17.4373 3.16434C17.0071 3.0597 16.3135 2.99098 15.5686 2.94156C14.8057 2.89095 13.9319 2.85748 13.1096 2.83525C12.2862 2.813 11.5093 2.80189 10.9386 2.79633C10.653 2.79355 10.4188 2.79216 10.2558 2.79147L10.0671 2.79086L9.99989 2.79077L9.93277 2.79087L9.74391 2.79154C9.58078 2.7923 9.34644 2.79382 9.06079 2.79687C8.48979 2.80295 7.71246 2.81513 6.88861 2.83951C6.06586 2.86387 5.19113 2.90056 4.427 2.95608C3.68231 3.01019 2.98372 3.08564 2.54802 3.20171L2.53839 3.20443C2.02256 3.34981 1.55407 3.6283 1.18037 4.01209C0.806648 4.39589 0.540981 4.8714 0.410501 5.3907C0.4067 5.40583 0.403407 5.42108 0.400628 5.43643C0.127043 6.94771 -0.0069032 8.4808 0.000472805 10.0165C-0.00903666 11.5637 0.12492 13.1085 0.400633 14.6311C0.40475 14.6539 0.409993 14.6764 0.416343 14.6986C0.560184 15.2017 0.831781 15.6591 1.20461 16.0267C1.57742 16.3943 2.03884 16.6596 2.54418 16.7973L2.54804 16.7984C2.98373 16.9144 3.68231 16.99 4.427 17.0441C5.19113 17.0996 6.06586 17.1363 6.88861 17.1606C7.71246 17.185 8.48979 17.1972 9.06079 17.2033C9.34644 17.2063 9.58078 17.2078 9.74391 17.2086ZM8.70053 6.99122C8.51374 6.87914 8.28109 6.87621 8.09153 6.98354C7.90197 7.09086 7.78479 7.29186 7.78479 7.5097V12.4912C7.78479 12.709 7.90197 12.91 8.09153 13.0174C8.28109 13.1247 8.51374 13.1218 8.70053 13.0097L12.8518 10.5189C13.0339 10.4097 13.1453 10.2128 13.1453 10.0004C13.1453 9.78806 13.0339 9.59124 12.8518 9.48196L8.70053 6.99122Z"></path>
    </symbol></defs><use xlink:href="#icon-youtube" class="svg-use" fill="#FFFFFF"></use></svg>